<svg xmlns="http://www.w3.org/2000/svg" width="21" height="21" viewBox="0 0 21 21"><defs><style>.a{fill:#445563;}.b{fill:#f1f2f2;}</style></defs><g transform="translate(-0.001)"><circle class="a" cx="10.5" cy="10.5" r="10.5" transform="translate(0.001 0)"/><g transform="translate(4.699 6.369)"><path class="b" d="M37.336,35.2a5.008,5.008,0,0,1-1.442.395A2.517,2.517,0,0,0,37,34.211a5.024,5.024,0,0,1-1.594.609,2.512,2.512,0,0,0-4.277,2.289,7.125,7.125,0,0,1-5.173-2.623,2.513,2.513,0,0,0,.777,3.351,2.492,2.492,0,0,1-1.137-.314c0,.011,0,.021,0,.032a2.511,2.511,0,0,0,2.013,2.461,2.52,2.52,0,0,1-1.133.043A2.512,2.512,0,0,0,28.819,41.8,5.066,5.066,0,0,1,25.1,42.842a7.137,7.137,0,0,0,10.988-6.013c0-.109,0-.217-.007-.325a5.09,5.09,0,0,0,1.253-1.3Z" transform="translate(-25.103 -34.028)"/></g></g></svg>