<svg xmlns="http://www.w3.org/2000/svg" width="21" height="21" viewBox="0 0 21 21"><defs><style>.a{fill:#445563;}.b{fill:#fff;}</style></defs><g transform="translate(-7474 -8896)"><circle class="a" cx="10.5" cy="10.5" r="10.5" transform="translate(7474 8896)"/><g transform="translate(7480.141 8902.141)"><path class="b" d="M6.487,0H2.752A2.756,2.756,0,0,0,0,2.752V6.487A2.756,2.756,0,0,0,2.752,9.239H6.487A2.756,2.756,0,0,0,9.239,6.487V2.752A2.756,2.756,0,0,0,6.487,0ZM8.31,6.487A1.823,1.823,0,0,1,6.487,8.31H2.752A1.823,1.823,0,0,1,.929,6.487V2.752A1.823,1.823,0,0,1,2.752.929H6.487A1.823,1.823,0,0,1,8.31,2.752V6.487Z"/><path class="b" d="M135.39,133a2.39,2.39,0,1,0,2.39,2.39A2.392,2.392,0,0,0,135.39,133Zm0,3.85a1.46,1.46,0,1,1,1.46-1.46A1.46,1.46,0,0,1,135.39,136.85Z" transform="translate(-130.77 -130.77)"/><circle class="b" cx="0.573" cy="0.573" r="0.573" transform="translate(6.441 1.675)"/></g></g></svg>