<svg xmlns="http://www.w3.org/2000/svg" width="14.188" height="21" viewBox="0 0 14.188 21"><defs><style>.a{fill: #747371;}</style></defs><g transform="translate(-86.85)"><g transform="translate(86.85)"><g transform="translate(0)"><path class="a" d="M92.526,20.243a.757.757,0,0,1-.757.757H87.607a.757.757,0,0,1-.757-.757V.757A.757.757,0,0,1,87.607,0h4.162a.757.757,0,0,1,.757.757Z" transform="translate(-86.85)"/><path class="a" d="M309.654,20.243A.757.757,0,0,1,308.9,21h-4.162a.757.757,0,0,1-.757-.757V.757A.757.757,0,0,1,304.735,0H308.9a.757.757,0,0,1,.757.757Z" transform="translate(-295.464)"/></g></g></g></svg>